<?xml version="1.0" standalone="no"?>
<!DOCTYPE svg PUBLIC "-//W3C//DTD SVG 20010904//EN"
 "http://www.w3.org/TR/2001/REC-SVG-20010904/DTD/svg10.dtd">
<svg version="1.0" xmlns="http://www.w3.org/2000/svg"
 width="500.000000pt" height="311.000000pt" viewBox="0 0 500.000000 311.000000"
 preserveAspectRatio="xMidYMid meet">

<g transform="translate(0.000000,311.000000) scale(0.100000,-0.100000)"
fill="#000000" stroke="none">
<path d="M140 1555 l0 -1235 1240 0 1240 0 -2 353 -3 352 -40 0 -40 0 -3 -312
-2 -313 -1155 0 -1155 0 0 1155 0 1155 1155 0 1155 0 2 -312 3 -313 40 0 40 0
3 353 2 352 -1240 0 -1240 0 0 -1235z"/>
<path d="M1895 2001 c-47 -15 -85 -59 -85 -99 0 -63 64 -119 124 -108 37 7 80
49 89 85 16 66 -65 143 -128 122z"/>
<path d="M3585 2003 c-32 -8 -74 -54 -81 -89 -12 -67 53 -132 121 -120 40 8
82 48 90 86 14 66 -63 139 -130 123z"/>
<path d="M3900 1999 c-65 -26 -91 -83 -66 -142 14 -35 58 -67 91 -67 32 0 81
30 99 61 45 76 -42 179 -124 148z"/>
<path d="M3219 1993 c0 -5 -24 -201 -53 -438 -29 -236 -50 -434 -46 -438 4 -4
45 -7 91 -5 l83 3 48 390 c25 215 50 414 53 443 l6 52 -90 0 c-50 0 -91 -3
-92 -7z"/>
<path d="M967 1953 c4 -16 52 -210 107 -433 l101 -405 88 0 88 0 210 427 c115
235 209 430 209 434 0 3 -43 4 -96 2 -89 -3 -98 -5 -113 -27 -8 -13 -73 -160
-143 -325 -70 -166 -128 -299 -128 -296 0 3 -27 144 -59 314 -46 242 -63 312
-77 323 -12 8 -49 13 -106 13 l-88 0 7 -27z"/>
<path d="M2238 1896 c-8 -7 -25 -46 -38 -86 -25 -74 -33 -82 -91 -94 -27 -6
-39 -28 -39 -77 0 -28 15 -39 52 -39 23 0 23 10 -6 -240 -14 -125 -8 -172 29
-210 50 -53 160 -59 246 -14 34 17 35 19 9 78 -19 46 -20 46 -60 40 -32 -5
-41 -3 -46 10 -4 9 2 89 12 176 l18 160 68 0 c76 0 74 -2 82 78 l5 52 -71 0
c-68 0 -70 1 -65 23 3 12 9 52 12 90 l7 67 -55 0 c-34 0 -61 -5 -69 -14z"/>
<path d="M2780 1724 c-117 -31 -203 -103 -258 -212 -33 -67 -37 -86 -41 -165
-5 -138 34 -212 127 -236 64 -17 155 17 202 76 l20 26 0 -30 c0 -51 20 -66 92
-71 l65 -4 6 33 c24 135 69 561 61 569 -14 14 -108 30 -168 29 -28 0 -76 -7
-106 -15z m90 -126 c0 -64 -33 -209 -57 -256 -67 -130 -153 -117 -153 23 0 95
49 188 118 225 42 22 92 26 92 8z"/>
<path d="M1805 1688 c-12 -88 -65 -544 -65 -560 0 -16 11 -18 90 -18 54 0 90
4 90 10 0 6 16 141 35 300 19 159 35 294 35 300 0 6 -36 10 -89 10 l-90 0 -6
-42z"/>
<path d="M3500 1723 c0 -5 -16 -138 -35 -298 -19 -159 -35 -296 -35 -302 0
-10 25 -13 90 -13 50 0 90 2 90 5 0 3 16 136 35 295 19 159 35 297 35 305 0
12 -17 15 -90 15 -49 0 -90 -3 -90 -7z"/>
<path d="M3820 1720 c0 -6 -16 -141 -35 -301 -19 -161 -35 -295 -35 -300 0 -5
40 -9 89 -9 l90 0 6 43 c14 106 65 539 65 557 0 19 -6 20 -90 20 -54 0 -90 -4
-90 -10z"/>
</g>
</svg>
