<svg xmlns="http://www.w3.org/2000/svg" viewBox="0 0 395.52 247.2" height="247.2" width="395.52"><g><svg/></g><g><svg viewBox="0 0 395.52 247.2" height="247.2" width="395.52"><g transform="matrix(1,0,0,1,75.54432,76.67567705521472)"><svg viewBox="0 0 244.43135999999998 93.84864588957053" height="93.84864588957053" width="244.43135999999998"><g><svg viewBox="0 0 244.43135999999998 93.84864588957053" height="93.84864588957053" width="244.43135999999998"><g><svg viewBox="0 0 244.43135999999998 93.84864588957053" height="93.84864588957053" width="244.43135999999998"><g><svg viewBox="0 0 244.43135999999998 93.84864588957053" height="93.84864588957053" width="244.43135999999998"><g id="textblocktransform"><svg viewBox="0 0 244.43135999999998 93.84864588957053" height="93.84864588957053" width="244.43135999999998" id="textblock"><g><svg viewBox="0 0 244.43135999999998 93.84864588957053" height="93.84864588957053" width="244.43135999999998"><g transform="matrix(1,0,0,1,0,0)"><svg width="244.43135999999998" viewBox="-1.2 -36.1 97.79 37.550000000000004" height="93.84864588957053" data-palette-color="#000000"><path d="M7.4-9.2L6.75-11.7Q6.45-12.8 5.15-18.85 3.85-24.9 2.5-28.5 1.15-32.1-0.7-33.3L-0.7-33.3Q-1.2-33.55-1.2-33.95L-1.2-33.95Q-1.2-34.9 1.5-35.5 4.2-36.1 5.68-36.1 7.15-36.1 7.45-35.25L7.45-35.25Q8.35-33.4 9.75-26.95L9.75-26.95Q12.6-13.45 13.95-9.95L13.95-9.95Q14.25-9.25 14.7-9.25 15.15-9.25 15.63-10.13 16.1-11 16.93-12.63 17.75-14.25 19.15-18.4 20.55-22.55 20.55-25.6L20.55-25.6Q20.55-30.3 17.45-32.25L17.45-32.25Q17.2-32.55 17.2-32.9L17.2-32.9Q17.2-33.95 20.1-35 23-36.05 25.35-36.05L25.35-36.05Q26.9-36.05 26.9-34.6L26.9-34.6Q26.9-30.1 25.1-24.18 23.3-18.25 20.8-13.18 18.3-8.1 16.15-4.4L16.15-4.4Q12.75 1.35 11.85 1.35L11.85 1.35Q11.4 1.35 11 0.65L11 0.65Q9.5-1.5 7.4-9.2L7.4-9.2ZM32.7-26.75L32.7-26.75 31.5-26.8Q30.15-26.8 29.75-26.15L29.75-26.15Q29.65-26 29.5-26L29.5-26Q28.85-26 28.85-28.23 28.85-30.45 29.52-31.05 30.2-31.65 31.87-31.65 33.55-31.65 34.15-31.08 34.75-30.5 34.75-29.15 34.75-27.8 34.3-27.28 33.85-26.75 32.7-26.75ZM28.7-1.5L28.7-1.5 29.25-13.15Q29.25-17.3 28.3-18.8L28.3-18.8Q28-19.3 27.6-19.55L27.6-19.55Q27.3-19.65 27.3-19.95L27.3-19.95Q27.3-20.85 29.85-21.7 32.4-22.55 33.57-22.55 34.75-22.55 34.8-21.95L34.8-21.95Q34.8-20.95 34.52-16.28 34.25-11.6 34.25-6.45 34.25-1.3 34.85-0.05L34.85-0.05Q35 0.2 35 0.45L35 0.45Q35 1.1 33.1 1.1 31.2 1.1 29.2 0.1L29.2 0.1Q28.7-0.15 28.7-1.5ZM37.3-19.5L37.3-19.5 37.45-21.5Q37.5-21.95 38.15-21.95L38.15-21.95 39.9-21.95 39.7-25.95 39.7-26.15Q39.7-27.3 41.45-28.35 43.2-29.4 44.65-29.4L44.65-29.4Q45.09-29.4 45.09-29L45.09-29 45.09-28.95Q44.9-27.6 44.7-22L44.7-22Q46.9-22 47.5-22.1 48.09-22.2 48.15-22.2L48.15-22.2Q48.5-22.2 48.5-21.6 48.5-21 47.95-20.08 47.4-19.15 46.75-19.1L46.75-19.1 44.65-19.1Q44.59-17.4 44.59-13.38 44.59-9.35 44.67-6.75 44.75-4.15 44.84-2.83 44.95-1.5 45.07-0.7 45.2 0.1 45.27 0.45 45.34 0.8 45.34 0.9L45.34 0.9Q45.34 1.4 44.7 1.45L44.7 1.45Q42.75 1.45 40.82 0.9 38.9 0.35 38.9-1L38.9-1Q39.95-9.4 39.95-19.05L39.95-19.05Q38.59-19.05 37.9-18.95L37.9-18.95 37.84-18.95Q37.4-18.95 37.3-19.5ZM65.94-15L65.94-15 65.84-8.6Q65.84-1.95 67.29-0.6L67.29-0.6Q67.49-0.4 67.49-0.15L67.49-0.15Q67.49 0.6 64.27 0.6 61.04 0.6 60.84-1.3L60.84-1.3Q60.79-1.75 60.79-3.15L60.79-3.15 60.99-11.15Q60.99-11.5 60.59-11.5L60.59-11.5Q58.19-11.5 56.09-10.15 53.99-8.8 53.99-6.7L53.99-6.7Q53.99-5.6 54.59-4.85 55.19-4.1 56.07-4.1 56.94-4.1 57.52-4.45 58.09-4.8 58.19-4.85L58.19-4.85Q59.04-4.75 59.04-3.08 59.04-1.4 57.49-0.38 55.94 0.65 54.24 0.65 52.54 0.65 51.32 0.05 50.09-0.55 49.54-1.3 48.99-2.05 48.64-3L48.64-3Q48.29-4.15 48.29-5L48.29-5Q48.29-8.5 50.49-10.6 52.69-12.7 56.14-13.6L56.14-13.6Q60.69-14.5 60.89-15.25L60.89-15.25Q61.04-15.8 61.04-17.1L61.04-17.1Q61.04-19.75 58.34-19.75L58.34-19.75Q57.19-19.75 56.29-19.03 55.39-18.3 55.39-17.2L55.39-17.2 55.69-16Q55.59-15.15 53.89-15L53.89-15 53.34-14.95Q51.84-14.95 50.97-15.7 50.09-16.45 50.09-17.7L50.09-17.7Q50.09-18.5 50.62-19.48 51.14-20.45 51.94-21.05 52.74-21.65 54.42-22.13 56.09-22.6 57.64-22.6 59.19-22.6 60.04-22.5 60.89-22.4 62.37-22.03 63.84-21.65 64.82-20.6 65.79-19.55 65.87-18.38 65.94-17.2 65.94-15ZM75.24-28.6L75.24-28.6 74.94-10.25Q74.94-1.65 75.49 0.05L75.49 0.05Q75.64 0.35 75.64 0.65L75.64 0.65Q75.64 1.25 74.19 1.25 72.74 1.25 70.97 0.53 69.19-0.2 69.19-1.35L69.19-1.35Q70.19-8.35 70.19-20.05L70.19-20.05 69.99-27.7Q69.89-29.1 69.42-30.1 68.94-31.1 68.49-31.4L68.49-31.4 68.09-31.65Q67.74-31.85 67.74-32.1L67.74-32.1Q67.74-32.8 69.92-33.83 72.09-34.85 74.14-34.85L74.14-34.85Q74.94-34.85 75.04-34.3L75.04-34.3Q75.24-33 75.24-28.6ZM83.79-26.75L83.79-26.75 82.59-26.8Q81.24-26.8 80.84-26.15L80.84-26.15Q80.74-26 80.59-26L80.59-26Q79.94-26 79.94-28.23 79.94-30.45 80.61-31.05 81.29-31.65 82.96-31.65 84.64-31.65 85.24-31.08 85.84-30.5 85.84-29.15 85.84-27.8 85.39-27.28 84.94-26.75 83.79-26.75ZM79.79-1.5L79.79-1.5 80.34-13.15Q80.34-17.3 79.39-18.8L79.39-18.8Q79.09-19.3 78.69-19.55L78.69-19.55Q78.39-19.65 78.39-19.95L78.39-19.95Q78.39-20.85 80.94-21.7 83.49-22.55 84.66-22.55 85.84-22.55 85.89-21.95L85.89-21.95Q85.89-20.95 85.61-16.28 85.34-11.6 85.34-6.45 85.34-1.3 85.94-0.05L85.94-0.05Q86.09 0.2 86.09 0.45L86.09 0.45Q86.09 1.1 84.19 1.1 82.29 1.1 80.29 0.1L80.29 0.1Q79.79-0.15 79.79-1.5ZM94.29-26.75L94.29-26.75 93.09-26.8Q91.74-26.8 91.34-26.15L91.34-26.15Q91.24-26 91.09-26L91.09-26Q90.44-26 90.44-28.23 90.44-30.45 91.11-31.05 91.79-31.65 93.46-31.65 95.14-31.65 95.74-31.08 96.34-30.5 96.34-29.15 96.34-27.8 95.89-27.28 95.44-26.75 94.29-26.75ZM90.29-1.5L90.29-1.5 90.84-13.15Q90.84-17.3 89.89-18.8L89.89-18.8Q89.59-19.3 89.19-19.55L89.19-19.55Q88.89-19.65 88.89-19.95L88.89-19.95Q88.89-20.85 91.44-21.7 93.99-22.55 95.16-22.55 96.34-22.55 96.39-21.95L96.39-21.95Q96.39-20.95 96.11-16.28 95.84-11.6 95.84-6.45 95.84-1.3 96.44-0.05L96.44-0.05Q96.59 0.2 96.59 0.45L96.59 0.45Q96.59 1.1 94.69 1.1 92.79 1.1 90.79 0.1L90.79 0.1Q90.29-0.15 90.29-1.5Z" opacity="1" transform="matrix(1,0,0,1,0,0)" fill="#000000" class="wordmark-text-0" data-fill-palette-color="primary" id="text-0"/></svg></g></svg></g></svg></g></svg></g></svg></g></svg></g></svg></g><path d="M222.245 70.676L222.245 18.058 11.161 18.058 11.161 229.142 222.245 229.142 222.245 176.524 213.782 176.524 213.782 220.679 19.625 220.679 19.625 26.521 213.782 26.521 213.782 70.676Z" fill="#000000" stroke="transparent" data-fill-palette-color="tertiary"/></svg></g><defs/></svg>